<?xml version="1.0" encoding="UTF-8"?>
<svg version="1.1" xmlns="http://www.w3.org/2000/svg" width="245" height="214">
<path d="M0 0 C49.5 0 99 0 150 0 C150 46.86 150 93.72 150 142 C100.5 142 51 142 0 142 C0 95.14 0 48.28 0 0 Z M8 8 C8 49.58 8 91.16 8 134 C52.22 134 96.44 134 142 134 C142 92.42 142 50.84 142 8 C97.78 8 53.56 8 8 8 Z " fill="#454445" transform="translate(28,26)"/>
<path d="M0 0 C1.01964844 -0.00773437 2.03929688 -0.01546875 3.08984375 -0.0234375 C6.47538499 0.43034069 8.33115206 1.35142744 11.0625 3.375 C13.1649469 6.52867035 13.31135554 7.2426887 13.30300903 10.83586121 C13.30575836 11.74871384 13.30850769 12.66156647 13.31134033 13.6020813 C13.30414978 14.60117523 13.29695923 15.60026917 13.28955078 16.62963867 C13.28984283 17.68346237 13.29013489 18.73728607 13.29043579 19.82304382 C13.28904028 23.31310199 13.27346847 26.80294779 13.2578125 30.29296875 C13.25408316 32.71006656 13.25123582 35.12716588 13.24923706 37.54426575 C13.24159438 43.9114498 13.22194037 50.27854286 13.1998291 56.64569092 C13.17938438 63.14073455 13.17023828 69.63579285 13.16015625 76.13085938 C13.13869514 88.87894511 13.10493498 101.62696772 13.0625 114.375 C6.91015625 114.47265625 6.91015625 114.47265625 5.0625 114.375 C4.0625 113.375 4.0625 113.375 3.94224548 111.31858826 C3.94446609 110.41479935 3.94668671 109.51101044 3.94897461 108.57983398 C3.94905014 107.55885117 3.94912567 106.53786835 3.94920349 105.48594666 C3.95436478 104.3755452 3.95952606 103.26514374 3.96484375 102.12109375 C3.9662587 100.99051041 3.96767365 99.85992706 3.96913147 98.69508362 C3.97474981 95.06752935 3.98730542 91.44003576 4 87.8125 C4.00501264 85.36002693 4.00957595 82.9075529 4.01367188 80.45507812 C4.0247252 74.42836455 4.04148116 68.40168661 4.0625 62.375 C1.4225 62.375 -1.2175 62.375 -3.9375 62.375 C-3.9375 79.535 -3.9375 96.695 -3.9375 114.375 C-6.5775 114.375 -9.2175 114.375 -11.9375 114.375 C-13.47254725 112.83995275 -13.06964125 111.44215235 -13.07794189 109.30218506 C-13.08365204 108.42455002 -13.08936218 107.54691498 -13.09524536 106.64268494 C-13.09636322 105.67230789 -13.09748108 104.70193085 -13.09863281 103.70214844 C-13.10359772 102.68590897 -13.10856262 101.66966949 -13.11367798 100.62263489 C-13.12834479 97.24320816 -13.13510976 93.8638284 -13.140625 90.484375 C-13.14637356 88.14365639 -13.15213133 85.8029378 -13.15789795 83.46221924 C-13.16842137 78.54593689 -13.17425498 73.62967095 -13.17773438 68.71337891 C-13.18321619 62.41040612 -13.20723208 56.10764968 -13.23570633 49.80474472 C-13.25432285 44.96634283 -13.25953783 40.12799309 -13.26107025 35.28955841 C-13.26410048 32.96591257 -13.27214139 30.64226773 -13.28525543 28.31865692 C-13.30229196 25.06741369 -13.3004411 21.81669933 -13.29394531 18.56542969 C-13.3031601 17.60314957 -13.31237488 16.64086945 -13.3218689 15.64942932 C-13.29103377 10.72771428 -13.15343331 7.36632961 -9.9375 3.375 C-6.77024848 0.25542753 -4.38040015 -0.033143 0 0 Z M-3.9375 10.375 C-4.22886164 12.35439141 -4.22886164 12.35439141 -4.16455078 14.64111328 C-4.16439972 15.52187531 -4.16424866 16.40263733 -4.16409302 17.31008911 C-4.15377045 18.26221283 -4.14344788 19.21433655 -4.1328125 20.1953125 C-4.1299826 21.16910858 -4.12715271 22.14290466 -4.12423706 23.14620972 C-4.11301913 26.26426349 -4.0879117 29.38203268 -4.0625 32.5 C-4.05247228 34.61067294 -4.04334607 36.72135038 -4.03515625 38.83203125 C-4.01307458 44.01311835 -3.97958129 49.19403885 -3.9375 54.375 C-1.2975 54.375 1.3425 54.375 4.0625 54.375 C4.08777062 47.98462769 4.10533317 41.59426817 4.11743164 35.20385742 C4.12247308 33.02807127 4.12930607 30.85228853 4.13793945 28.67651367 C4.15001338 25.55646933 4.15573005 22.43646962 4.16015625 19.31640625 C4.16531754 18.33724747 4.17047882 17.35808868 4.17579651 16.34925842 C4.17587204 15.44840012 4.17594757 14.54754181 4.17602539 13.61938477 C4.178246 12.82218521 4.18046661 12.02498566 4.18275452 11.20362854 C4.26300456 9.35577719 4.26300456 9.35577719 3.0625 8.375 C-0.898668 7.98409667 -0.898668 7.98409667 -3.9375 10.375 Z " fill="#313132" transform="translate(87.9375,39.625)"/>
<path d="M0 0 C18 0 18 0 24 3 C26.05467252 6.08200878 26.25174806 6.7250712 26.26742554 10.2061615 C26.27595551 11.06274857 26.28448547 11.91933563 26.29327393 12.80187988 C26.29236755 13.73858521 26.29146118 14.67529053 26.29052734 15.64038086 C26.30060318 17.12369652 26.30060318 17.12369652 26.31088257 18.63697815 C26.32991455 21.91298415 26.33378927 25.18878588 26.3359375 28.46484375 C26.34236135 30.73783961 26.3490894 33.01083464 26.35610962 35.28382874 C26.36809509 40.05113645 26.37178909 44.81837163 26.37060547 49.58569336 C26.37040211 55.7004753 26.3977168 61.81479337 26.43214989 67.92946529 C26.4543639 72.62457932 26.45844471 77.31958069 26.45738602 82.0147419 C26.45974979 84.26944135 26.46861671 86.52414356 26.48405075 88.77879143 C26.50360097 91.92960182 26.49791572 95.07939862 26.48583984 98.23022461 C26.49707886 99.1649057 26.50831787 100.09958679 26.51989746 101.06259155 C26.45865696 107.33636067 26.45865696 107.33636067 24.28213501 110.48561096 C16.0205536 115.96786695 11.34385668 114 0 114 C0 76.38 0 38.76 0 0 Z M10 8 C8.08935701 9.91064299 8.87985389 12.73827895 8.87557983 15.28016663 C8.87917511 16.18359299 8.88277039 17.08701935 8.88647461 18.01782227 C8.88632858 18.96406464 8.88618256 19.91030701 8.8860321 20.88522339 C8.88673164 24.02897392 8.89452591 27.17266601 8.90234375 30.31640625 C8.90420779 32.48974068 8.90563176 34.66307552 8.90663147 36.83641052 C8.91045779 42.56901195 8.92028903 48.30158823 8.93133545 54.03417969 C8.94154713 59.87890279 8.94612857 65.72362993 8.95117188 71.56835938 C8.9619112 83.045584 8.97898898 94.52278991 9 106 C10.9490625 105.7834375 10.9490625 105.7834375 12.9375 105.5625 C13.66839844 105.48128906 14.39929688 105.40007812 15.15234375 105.31640625 C17.01140229 105.18113386 17.01140229 105.18113386 18 104 C18.11654726 101.12478092 18.16802252 98.27326682 18.17700195 95.39697266 C18.18357315 94.49456345 18.19014435 93.59215424 18.19691467 92.66239929 C18.21669715 89.66295296 18.22832049 86.66355678 18.23828125 83.6640625 C18.24235678 82.64269573 18.2464323 81.62132896 18.25063133 80.56901169 C18.271512 75.16449941 18.28580574 69.76001268 18.29516602 64.35546875 C18.30624197 58.76068848 18.34064994 53.16630469 18.38033772 47.57166481 C18.40642673 43.28064207 18.41485091 38.98971493 18.41844749 34.69861984 C18.42333251 32.63566786 18.43500049 30.57272068 18.45348549 28.50984573 C18.47771586 25.62684557 18.47694165 22.74488624 18.4699707 19.86181641 C18.48918579 18.57592369 18.48918579 18.57592369 18.50878906 17.26405334 C18.50756222 12.715874 18.50756222 12.715874 16.22062683 8.94613647 C13.78897944 7.73868523 13.78897944 7.73868523 10 8 Z " fill="#383838" transform="translate(43,40)"/>
<path d="M0 0 C3.474002 2.73485264 5.28809952 4.67053922 6 9 C6.08242194 11.46237767 6.10743299 13.92688768 6.09765625 16.390625 C6.0962413 17.09523865 6.09482635 17.79985229 6.09336853 18.52581787 C6.08778933 20.76725584 6.07524073 23.00859243 6.0625 25.25 C6.05748231 26.77343605 6.05291987 28.29687368 6.04882812 29.8203125 C6.03782674 33.54690772 6.02057646 37.27344396 6 41 C3.26752652 42.36623674 1.01801098 42.128426 -2 42 C-3.9230889 40.0769111 -3.25321838 36.52929515 -3.31640625 33.90234375 C-3.33718735 33.19348526 -3.35796844 32.48462677 -3.37937927 31.75428772 C-3.44494598 29.48212695 -3.5037923 27.20984736 -3.5625 24.9375 C-3.60567849 23.40037817 -3.64929255 21.8632685 -3.69335938 20.32617188 C-3.80063449 16.5509041 -3.90188137 12.7755164 -4 9 C-5.65 9 -7.3 9 -9 9 C-9.04956835 13.75055432 -9.08579909 18.50095688 -9.10986328 23.25170898 C-9.11989896 24.86664453 -9.13353051 26.481562 -9.15087891 28.09643555 C-9.17523465 30.42240875 -9.18650747 32.74814095 -9.1953125 35.07421875 C-9.20563507 35.79212082 -9.21595764 36.51002289 -9.22659302 37.24967957 C-9.22748344 41.25982358 -8.94346826 44.45206 -7 48 C-5.3523962 48.71247732 -3.68236471 49.37400383 -2 50 C3.07938373 54.60688292 5.76128985 58.16362389 6.10217285 65.07006836 C6.16573326 67.62011726 6.19106752 70.16793559 6.203125 72.71875 C6.20882507 73.65424683 6.21452515 74.58974365 6.22039795 75.55358887 C6.22982222 77.52708818 6.23637167 79.50060305 6.24023438 81.47412109 C6.24996623 84.48953563 6.28102449 87.50427572 6.3125 90.51953125 C6.31902819 92.44010013 6.32427938 94.36067387 6.328125 96.28125 C6.3404718 97.18033081 6.3528186 98.07941162 6.36553955 99.0057373 C6.34837364 103.83546505 6.15433083 107.08519908 3 111 C-0.49030841 113.89196982 -3.47508845 114.47275169 -8.00390625 114.29296875 C-11.10139696 113.83834683 -13.38662746 112.6800252 -16 111 C-18.58995441 107.11506838 -18.25225542 103.89432764 -18.1953125 99.39453125 C-18.19106766 98.13572395 -18.19106766 98.13572395 -18.18673706 96.85148621 C-18.17554385 94.17167897 -18.15044101 91.49220619 -18.125 88.8125 C-18.11496908 86.99544754 -18.10584343 85.17838983 -18.09765625 83.36132812 C-18.07560734 78.90742325 -18.04108351 74.45376833 -18 70 C-15 69 -15 69 -10 70 C-9.67 81.22 -9.34 92.44 -9 104 C-5.36380344 105.08084521 -5.36380344 105.08084521 -3 105 C-3.01942065 98.96703322 -3.07113995 92.93552504 -3.15258789 86.90307617 C-3.17576059 84.85172476 -3.19016189 82.8002545 -3.19555664 80.7487793 C-3.20485143 77.7966105 -3.24585364 74.84630914 -3.29296875 71.89453125 C-3.2890361 70.97976517 -3.28510345 70.06499908 -3.28105164 69.12251282 C-3.38476727 64.57899157 -3.49400193 62.6301772 -6.42236328 58.9831543 C-7.2729834 58.32871338 -8.12360352 57.67427246 -9 57 C-9.64324219 56.46375 -10.28648437 55.9275 -10.94921875 55.375 C-12.11288475 54.45452712 -13.27958846 53.53788218 -14.44921875 52.625 C-18.69978298 48.17100826 -18.29352094 42.66691527 -18.265625 36.90234375 C-18.26753845 36.03106339 -18.2694519 35.15978302 -18.27142334 34.26210022 C-18.27278076 32.42562571 -18.26911533 30.58914147 -18.26074219 28.75268555 C-18.25002339 25.94362857 -18.2606591 23.13520922 -18.2734375 20.32617188 C-18.27211608 18.53906109 -18.26955405 16.7519507 -18.265625 14.96484375 C-18.26967346 14.12622299 -18.27372192 13.28760223 -18.27789307 12.42356873 C-18.27158875 11.63917923 -18.26528442 10.85478973 -18.25878906 10.04663086 C-18.25719788 9.35999863 -18.25560669 8.67336639 -18.25396729 7.96592712 C-17.95102836 5.62091704 -17.2115486 4.02110004 -16 2 C-10.87648952 -1.33148452 -5.7519466 -1.5087073 0 0 Z " fill="#333333" transform="translate(157,40)"/>
<path d="M0 0 C23.1 0 46.2 0 70 0 C70 45.54 70 91.08 70 138 C23.47 138 -23.06 138 -71 138 C-71 136.33333333 -71 134.66666667 -71 133 C-26.12 133 18.76 133 65 133 C65 91.09 65 49.18 65 6 C-1.825 5.505 -1.825 5.505 -70 5 C-70 4.67 -70 4.34 -70 4 C-69.32729568 3.98969254 -68.65459137 3.97938507 -67.96150208 3.96876526 C-60.90369618 3.85983806 -53.84599609 3.7453206 -46.78833008 3.62768555 C-44.16107415 3.58461049 -41.53379513 3.54291861 -38.90649414 3.50268555 C-35.11076934 3.44431195 -31.31515784 3.38081773 -27.51953125 3.31640625 C-26.36169632 3.29969376 -25.20386139 3.28298126 -24.01094055 3.26576233 C-12.4616371 3.18072407 -12.4616371 3.18072407 -1 2 C-0.67 1.34 -0.34 0.68 0 0 Z " fill="#121212" transform="translate(105,27)"/>
<path d="M0 0 C2.64 0 5.28 0 8 0 C8.33 17.82 8.66 35.64 9 54 C13.47702364 55.06537205 13.47702364 55.06537205 16 55 C16 36.85 16 18.7 16 0 C18.64 0 21.28 0 24 0 C24.11600357 7.47573274 24.20476984 14.95127049 24.25906086 22.42772198 C24.28512227 25.89964849 24.32045387 29.37095792 24.37719727 32.8425293 C24.44206834 36.83648499 24.46620862 40.82979558 24.48828125 44.82421875 C24.51408768 46.06709152 24.5398941 47.30996429 24.56648254 48.59049988 C24.56960697 58.1942888 24.56960697 58.1942888 21.59448242 61.32348633 C19 63 19 63 17 63 C17.00222061 63.6241832 17.00444122 64.24836639 17.00672913 64.89146423 C17.0287808 71.36342804 17.0439061 77.83538125 17.05493164 84.30737305 C17.05997349 86.72567172 17.06680678 89.14396733 17.07543945 91.56225586 C17.08751157 95.02979283 17.09322963 98.49728966 17.09765625 101.96484375 C17.10281754 103.05337143 17.10797882 104.14189911 17.11329651 105.26341248 C17.11340981 106.76485558 17.11340981 106.76485558 17.11352539 108.29663086 C17.115746 109.18265488 17.11796661 110.06867889 17.12025452 110.98155212 C17 113 17 113 16 114 C13.36 114 10.72 114 8 114 C8 97.17 8 80.34 8 63 C6.68 62.67 5.36 62.34 4 62 C0.73023332 59.61055512 -0.01547123 56.85138957 -1 53 C-1.28209859 49.02373279 -1.25641961 45.05895754 -1.23046875 41.07421875 C-1.23001053 39.93088577 -1.22955231 38.7875528 -1.2290802 37.60957336 C-1.22606662 35.20153765 -1.21820718 32.79350374 -1.20581055 30.38549805 C-1.18747951 26.68336153 -1.18530149 22.98147418 -1.18554688 19.27929688 C-1.18063426 16.94010199 -1.17480707 14.6009088 -1.16796875 12.26171875 C-1.16685593 11.14826584 -1.1657431 10.03481293 -1.16459656 8.88761902 C-1.15502678 7.35516289 -1.15502678 7.35516289 -1.14526367 5.79174805 C-1.14145187 4.88829147 -1.13764008 3.9848349 -1.13371277 3.05400085 C-1 1 -1 1 0 0 Z " fill="#292929" transform="translate(108,40)"/>
<path d="M0 0 C49.5 0 99 0 150 0 C150 46.86 150 93.72 150 142 C100.5 142 51 142 0 142 C0 95.14 0 48.28 0 0 Z M1 1 C1 46.54 1 92.08 1 139 C49.18 139 97.36 139 147 139 C147 93.46 147 47.92 147 1 C98.82 1 50.64 1 1 1 Z " fill="#555555" transform="translate(28,26)"/>
<path d="M0 0 C0.93672043 -0.00137466 1.87344086 -0.00274933 2.83854675 -0.00416565 C3.86928818 -0.00057037 4.9000296 0.0030249 5.96200562 0.00672913 C7.044944 0.0065831 8.12788239 0.00643707 9.24363708 0.00628662 C12.83646624 0.00698536 16.42924407 0.014776 20.02206421 0.02259827 C22.5078529 0.02446258 24.99364196 0.02588642 27.47943115 0.02688599 C33.36196568 0.03031887 39.24448114 0.03820679 45.12700784 0.04823548 C52.48004417 0.0604996 59.83308278 0.06587825 67.18612671 0.07142639 C80.3059278 0.08216184 93.42571358 0.09904566 106.54550171 0.12025452 C105.54550171 3.12025452 105.54550171 3.12025452 103.54550171 4.12025452 C102.08833083 4.21228014 100.62700405 4.24218728 99.16693115 4.24050903 C98.24703903 4.2418837 97.32714691 4.24325836 96.37937927 4.24467468 C95.36733932 4.24107941 94.35529938 4.23748413 93.31259155 4.23377991 C92.24916031 4.23392593 91.18572906 4.23407196 90.09007263 4.23422241 C86.56217434 4.2335237 83.03432832 4.22573322 79.50643921 4.21791077 C77.06549102 4.21604644 74.62454245 4.21462261 72.18359375 4.21362305 C65.74902316 4.20979903 59.31447503 4.19996971 52.87991333 4.18891907 C46.31792505 4.17870247 39.75593315 4.17412489 33.19393921 4.16908264 C20.31111711 4.15834736 7.4283106 4.14146366 -5.45449829 4.12025452 C-5.78449829 3.13025452 -6.11449829 2.14025452 -6.45449829 1.12025452 C-4.07893535 -0.06752695 -2.6502567 -0.00299126 0 0 Z " fill="#1C1C1D" transform="translate(39.454498291015625,160.87974548339844)"/>
<path d="M0 0 C1.98 0 3.96 0 6 0 C6 0.66 6 1.32 6 2 C6.99 1.67 7.98 1.34 9 1 C13.65159612 3.10429348 13.65159612 3.10429348 14.64233398 5.65136719 C15.13941446 8.9154724 15.11075735 12.08914735 15.09765625 15.390625 C15.0962413 16.09523865 15.09482635 16.79985229 15.09336853 17.52581787 C15.08778933 19.76725584 15.07524073 22.00859243 15.0625 24.25 C15.05748231 25.77343605 15.05291987 27.29687368 15.04882812 28.8203125 C15.03782674 32.54690772 15.02057646 36.27344396 15 40 C12.26752652 41.36623674 10.01801098 41.128426 7 41 C5.0769111 39.0769111 5.74678162 35.52929515 5.68359375 32.90234375 C5.6524221 31.83905602 5.6524221 31.83905602 5.62062073 30.75428772 C5.55505402 28.48212695 5.4962077 26.20984736 5.4375 23.9375 C5.39432151 22.40037817 5.35070745 20.8632685 5.30664062 19.32617188 C5.19936551 15.5509041 5.09811863 11.7755164 5 8 C3.35 8 1.7 8 0 8 C-0.33 19.22 -0.66 30.44 -1 42 C-1.33 42 -1.66 42 -2 42 C-2.04942899 37.07040878 -2.08573318 32.14096175 -2.10986328 27.21118164 C-2.11992237 25.53407275 -2.13357122 23.85698139 -2.15087891 22.17993164 C-2.17513152 19.76964998 -2.1864839 17.35960014 -2.1953125 14.94921875 C-2.20563507 14.19912033 -2.21595764 13.44902191 -2.22659302 12.67619324 C-2.227408 8.89699221 -2.15057067 7.22585601 0 4 C0 2.68 0 1.36 0 0 Z " fill="#7D7D7D" transform="translate(148,41)"/>
<path d="M0 0 C3 0.125 3 0.125 4 1.125 C4.14761028 3.62048878 4.23494119 6.09189886 4.28125 8.58984375 C4.30886414 9.7126046 4.30886414 9.7126046 4.33703613 10.85804749 C4.39596125 13.25944949 4.44869349 15.66092384 4.5 18.0625 C4.56755296 21.21760222 4.64125545 24.37247187 4.71875 27.52734375 C4.73232544 28.25759262 4.74590088 28.98784149 4.7598877 29.74021912 C4.79364938 33.55950869 4.79364938 33.55950869 6 37.125 C8.01669827 38.25850534 8.01669827 38.25850534 10 39.125 C7.525 39.62 7.525 39.62 5 40.125 C6.32 40.785 7.64 41.445 9 42.125 C5.33333333 42.125 1.66666667 42.125 -2 42.125 C-4.58163618 38.25254573 -4.27014859 35.04192973 -4.23046875 30.5546875 C-4.23001053 29.71785431 -4.22955231 28.88102112 -4.2290802 28.01882935 C-4.22606112 26.25195902 -4.2181851 24.48509129 -4.20581055 22.71826172 C-4.18752348 20.00348566 -4.1853011 17.28905004 -4.18554688 14.57421875 C-4.18063279 12.85937203 -4.17480494 11.14452763 -4.16796875 9.4296875 C-4.16685593 8.61305634 -4.1657431 7.79642517 -4.16459656 6.95504761 C-4.10696845 0.17112369 -4.10696845 0.17112369 0 0 Z " fill="#323232" transform="translate(143,108.875)"/>
<path d="M0 0 C23.1 0 46.2 0 70 0 C70 12.21 70 24.42 70 37 C69.67 37 69.34 37 69 37 C69 25.12 69 13.24 69 1 C65.88214887 1.64644661 65.88214887 1.64644661 65 4 C38.93 4 12.86 4 -14 4 C-14 3.67 -14 3.34 -14 3 C-13.07316406 2.95101563 -12.14632812 2.90203125 -11.19140625 2.8515625 C-9.99386719 2.77679687 -8.79632813 2.70203125 -7.5625 2.625 C-6.36753906 2.55539063 -5.17257813 2.48578125 -3.94140625 2.4140625 C-2.97074219 2.27742188 -2.00007813 2.14078125 -1 2 C-0.67 1.34 -0.34 0.68 0 0 Z " fill="#201F20" transform="translate(105,27)"/>
<path d="M0 0 C5.94 0 11.88 0 18 0 C18.33 0.66 18.66 1.32 19 2 C13.39 2 7.78 2 2 2 C2 37.97 2 73.94 2 111 C12.09349761 110.60351962 12.09349761 110.60351962 22 109 C21.01 109.99 20.02 110.98 19 112 C12.73 112 6.46 112 0 112 C0 75.04 0 38.08 0 0 Z " fill="#0D0D0D" transform="translate(43,40)"/>
<path d="M0 0 C1.51400391 0.01740234 1.51400391 0.01740234 3.05859375 0.03515625 C4.07050781 0.04417969 5.08242187 0.05320312 6.125 0.0625 C7.29869141 0.07990234 7.29869141 0.07990234 8.49609375 0.09765625 C8.49609375 3.39765625 8.49609375 6.69765625 8.49609375 10.09765625 C8.16609375 10.09765625 7.83609375 10.09765625 7.49609375 10.09765625 C7.49609375 7.45765625 7.49609375 4.81765625 7.49609375 2.09765625 C4.85609375 2.09765625 2.21609375 2.09765625 -0.50390625 2.09765625 C-0.50390625 19.25765625 -0.50390625 36.41765625 -0.50390625 54.09765625 C-3.14390625 54.09765625 -5.78390625 54.09765625 -8.50390625 54.09765625 C-10.39879577 52.20276673 -9.68409737 49.52626479 -9.734375 47.0078125 C-9.50390625 45.09765625 -9.50390625 45.09765625 -7.50390625 43.09765625 C-7.50390625 45.73765625 -7.50390625 48.37765625 -7.50390625 51.09765625 C-6.18390625 51.09765625 -4.86390625 51.09765625 -3.50390625 51.09765625 C-3.50612686 50.47347305 -3.50834747 49.84928986 -3.51063538 49.20619202 C-3.53268705 42.73422821 -3.54781235 36.262275 -3.55883789 29.7902832 C-3.56387974 27.37198453 -3.57071303 24.95368892 -3.5793457 22.53540039 C-3.59141782 19.06786342 -3.59713588 15.60036659 -3.6015625 12.1328125 C-3.60672379 11.04428482 -3.61188507 9.95575714 -3.61720276 8.83424377 C-3.61727829 7.83328171 -3.61735382 6.83231964 -3.61743164 5.80102539 C-3.61965225 4.91500137 -3.62187286 4.02897736 -3.62416077 3.11610413 C-3.44350277 0.08379597 -3.05166912 0.11901986 0 0 Z " fill="#5D5D5D" transform="translate(84.50390625,99.90234375)"/>
<path d="M0 0 C0.33 0 0.66 0 1 0 C1.11600357 7.47573274 1.20476984 14.95127049 1.25906086 22.42772198 C1.28512227 25.89964849 1.32045387 29.37095792 1.37719727 32.8425293 C1.44206834 36.83648499 1.46620862 40.82979558 1.48828125 44.82421875 C1.51408768 46.06709152 1.5398941 47.30996429 1.56648254 48.59049988 C1.56960697 58.1942888 1.56960697 58.1942888 -1.40551758 61.32348633 C-4 63 -4 63 -6 63 C-5.99777939 63.6241832 -5.99555878 64.24836639 -5.99327087 64.89146423 C-5.9712192 71.36342804 -5.9560939 77.83538125 -5.94506836 84.30737305 C-5.94002651 86.72567172 -5.93319322 89.14396733 -5.92456055 91.56225586 C-5.91248843 95.02979283 -5.90677037 98.49728966 -5.90234375 101.96484375 C-5.89718246 103.05337143 -5.89202118 104.14189911 -5.88670349 105.26341248 C-5.88662796 106.26437454 -5.88655243 107.26533661 -5.88647461 108.29663086 C-5.884254 109.18265488 -5.88203339 110.06867889 -5.87974548 110.98155212 C-6 113 -6 113 -7 114 C-9.67058851 114.14115161 -12.32432238 114.04247107 -15 114 C-15 113.34 -15 112.68 -15 112 C-12.69 112 -10.38 112 -8 112 C-8.01110306 111.38025803 -8.02220612 110.76051605 -8.03364563 110.12199402 C-8.14410688 103.68230577 -8.21961209 97.24288573 -8.2746582 90.80249023 C-8.29983101 88.39775668 -8.33397182 85.99309985 -8.37719727 83.58862305 C-8.43772467 80.13571267 -8.46618244 76.68381205 -8.48828125 73.23046875 C-8.51408768 72.15226364 -8.5398941 71.07405853 -8.56648254 69.96318054 C-8.56751853 67.21774638 -8.53802931 64.69231528 -8 62 C-5.59448242 59.9855957 -5.59448242 59.9855957 -3 59 C-0.75937252 55.63905878 -0.7342384 54.45601441 -0.68115234 50.51879883 C-0.66128265 49.39786331 -0.64141296 48.2769278 -0.62094116 47.12202454 C-0.60938995 45.91257675 -0.59783875 44.70312897 -0.5859375 43.45703125 C-0.56657135 42.21829758 -0.5472052 40.9795639 -0.5272522 39.70329285 C-0.47756593 36.41374825 -0.43630718 33.12423875 -0.39910889 29.83453369 C-0.35906688 26.47617475 -0.30797549 23.11798594 -0.2578125 19.75976562 C-0.16167847 13.17328642 -0.07665152 6.58673317 0 0 Z " fill="#D9DAD9" transform="translate(131,40)"/>
<path d="M0 0 C0.33 0 0.66 0 1 0 C1.33 10.56 1.66 21.12 2 32 C2.33 32 2.66 32 3 32 C3 55.1 3 78.2 3 102 C3.99 102.33 4.98 102.66 6 103 C4.68 103 3.36 103 2 103 C1.67 100.69 1.34 98.38 1 96 C0.67 96 0.34 96 0 96 C0 64.32 0 32.64 0 0 Z " fill="#454545" transform="translate(75,48)"/>
<path d="M0 0 C0.99 0.495 0.99 0.495 2 1 C2.4140625 3.94140625 2.4140625 3.94140625 2.625 7.5625 C2.69976562 8.76003906 2.77453125 9.95757812 2.8515625 11.19140625 C2.90054688 12.11824219 2.94953125 13.04507813 3 14 C5.22376874 11.77623126 4.45424461 6.69788449 4.62109375 3.6875 C4.74613281 2.800625 4.87117187 1.91375 5 1 C5.66 0.67 6.32 0.34 7 0 C7 10.89 7 21.78 7 33 C4.69 33 2.38 33 0 33 C0 22.11 0 11.22 0 0 Z " fill="#0E0E0E" transform="translate(154,47)"/>
<path d="M0 0 C2.31 0 4.62 0 7 0 C7.06949924 7.24961654 7.12281062 14.4991613 7.15543652 21.74904346 C7.17109511 25.11544877 7.19233621 28.48162623 7.22631836 31.84790039 C7.26261749 35.71767249 7.2797075 39.58712026 7.29296875 43.45703125 C7.30845261 44.66647903 7.32393646 45.87592682 7.33988953 47.12202454 C7.34011612 48.24296005 7.34034271 49.36389557 7.34057617 50.51879883 C7.34723801 51.50697098 7.35389984 52.49514313 7.36076355 53.51325989 C6.94547724 56.37582494 6.24065298 57.24618714 4 59 C4.16076523 58.4497113 4.32153046 57.89942261 4.48716736 57.3324585 C5.05968884 54.72852401 5.16088782 52.34673078 5.20532227 49.68066406 C5.22526749 48.61986633 5.24521271 47.5590686 5.26576233 46.46612549 C5.29083107 44.75812775 5.29083107 44.75812775 5.31640625 43.015625 C5.33718735 41.84489441 5.35796844 40.67416382 5.37937927 39.46795654 C5.44475628 35.72869731 5.50370491 31.98936795 5.5625 28.25 C5.60569647 25.7148365 5.64931112 23.17968009 5.69335938 20.64453125 C5.80042559 14.4297616 5.9022141 8.21492222 6 2 C4.68 2 3.36 2 2 2 C2 18.83 2 35.66 2 53 C1.01 53.495 1.01 53.495 0 54 C0 36.18 0 18.36 0 0 Z " fill="#060606" transform="translate(124,40)"/>
<path d="M0 0 C1.32 0 2.64 0 4 0 C4.07402368 5.65996416 4.12854173 11.31964811 4.16479492 16.97998047 C4.17990395 18.90646267 4.20039214 20.83291035 4.22631836 22.75927734 C4.26260925 25.52450057 4.27970479 28.28927004 4.29296875 31.0546875 C4.30845261 31.9193161 4.32393646 32.7839447 4.33988953 33.67477417 C4.34057617 36.10107422 4.34057617 36.10107422 4 40 C3.01 40.66 2.02 41.32 1 42 C0 41 0 41 -0.11352539 37.12280273 C-0.11336621 35.39305833 -0.10766849 33.66330919 -0.09765625 31.93359375 C-0.0962413 31.02497086 -0.09482635 30.11634796 -0.09336853 29.18019104 C-0.08775193 26.26592779 -0.07519665 23.35174019 -0.0625 20.4375 C-0.05748714 18.46679798 -0.05292386 16.49609476 -0.04882812 14.52539062 C-0.03777711 9.68356441 -0.02050138 4.84179505 0 0 Z " fill="#1E1D1D" transform="translate(126,42)"/>
<path d="M0 0 C0.33 0 0.66 0 1 0 C1 15.18 1 30.36 1 46 C3.97 46 6.94 46 10 46 C10 30.82 10 15.64 10 0 C10.66 0.33 11.32 0.66 12 1 C12.02527002 7.53278786 12.04283292 14.06556321 12.05493164 20.59838867 C12.05997317 22.82267732 12.06680623 25.04696263 12.07543945 27.27124023 C12.08751298 30.46078309 12.09322996 33.65028229 12.09765625 36.83984375 C12.10281754 37.84087631 12.10797882 38.84190887 12.11329651 39.87327576 C12.11337204 40.79415482 12.11344757 41.71503387 12.11352539 42.66381836 C12.115746 43.47878281 12.11796661 44.29374725 12.12025452 45.13340759 C12 47 12 47 11 48 C9.33570949 48.09823937 7.66718069 48.12973631 6 48.125 C4.63875 48.12886719 4.63875 48.12886719 3.25 48.1328125 C1 48 1 48 0 47 C-0.09304018 45.52645652 -0.11746265 44.04849409 -0.11352539 42.57202148 C-0.11344986 41.63112167 -0.11337433 40.69022186 -0.11329651 39.72080994 C-0.10813522 38.69790359 -0.10297394 37.67499725 -0.09765625 36.62109375 C-0.0962413 35.57929459 -0.09482635 34.53749542 -0.09336853 33.46412659 C-0.0877508 30.12188906 -0.0751953 26.77971743 -0.0625 23.4375 C-0.05748728 21.17773534 -0.05292398 18.91796963 -0.04882812 16.65820312 C-0.03777561 11.10544609 -0.02102024 5.55272775 0 0 Z " fill="#0F0F0F" transform="translate(82,48)"/>
<path d="M0 0 C0.66 0 1.32 0 2 0 C2 0.99 2 1.98 2 3 C3.32 3.33 4.64 3.66 6 4 C4.35 4.66 2.7 5.32 1 6 C0.67 16.56 0.34 27.12 0 38 C-0.66 38 -1.32 38 -2 38 C-2.04944705 33.49765627 -2.08574161 28.9954707 -2.10986328 24.49291992 C-2.11991935 22.96131639 -2.133566 21.42973205 -2.15087891 19.89819336 C-2.17514498 17.69640364 -2.18648688 15.49486781 -2.1953125 13.29296875 C-2.20563507 12.60849167 -2.21595764 11.92401459 -2.22659302 11.21879578 C-2.22745382 7.56938339 -2.08567666 6.12851498 0 3 C0 2.01 0 1.02 0 0 Z " fill="#0E0D0E" transform="translate(146,42)"/>
<path d="M0 0 C0.33 0 0.66 0 1 0 C1 10.23 1 20.46 1 31 C-0.32 31 -1.64 31 -3 31 C-2.85982174 28.02046641 -2.71313658 25.04150696 -2.5625 22.0625 C-2.52318359 21.21236328 -2.48386719 20.36222656 -2.44335938 19.48632812 C-2.40146484 18.67744141 -2.35957031 17.86855469 -2.31640625 17.03515625 C-2.27974854 16.2862915 -2.24309082 15.53742676 -2.20532227 14.76586914 C-2 13 -2 13 -1 12 C-0.76572222 9.98405418 -0.58663876 7.961526 -0.4375 5.9375 C-0.31181641 4.28041016 -0.31181641 4.28041016 -0.18359375 2.58984375 C-0.12300781 1.73519531 -0.06242188 0.88054688 0 0 Z " fill="#212121" transform="translate(159,48)"/>
<path d="M0 0 C2.5 1.5625 2.5 1.5625 4 3 C3.67 3.66 3.34 4.32 3 5 C1.02 4.34 -0.96 3.68 -3 3 C-3 2.34 -3 1.68 -3 1 C-5.31 1.33 -7.62 1.66 -10 2 C-10 1.34 -10 0.68 -10 0 C-6.76038186 -1.61980907 -3.41534955 -0.78971521 0 0 Z " fill="#494949" transform="translate(157,40)"/>
</svg>
